<?xml version="1.0" standalone="no"?>
<!DOCTYPE svg PUBLIC "-//W3C//DTD SVG 20010904//EN"
 "http://www.w3.org/TR/2001/REC-SVG-20010904/DTD/svg10.dtd">
<svg version="1.0" xmlns="http://www.w3.org/2000/svg"
 width="220.000000pt" height="222.000000pt" viewBox="0 0 220.000000 222.000000"
 preserveAspectRatio="xMidYMid meet">

<g transform="translate(0.000000,222.000000) scale(0.100000,-0.100000)"
fill="#000000" stroke="none">
<path d="M955 2199 c-460 -63 -836 -414 -929 -869 -23 -117 -29 -235 -17 -340
12 -97 37 -210 49 -221 4 -4 186 -10 405 -13 l397 -7 0 285 0 286 -215 0 -215
0 0 200 0 200 650 0 650 0 0 -200 0 -200 -215 0 -215 0 2 -282 3 -283 160 -2
c88 -2 277 0 419 5 l260 7 18 70 c77 305 25 623 -147 880 -159 240 -414 411
-698 469 -99 21 -271 28 -362 15z m423 -161 c17 -15 15 -68 -5 -90 -48 -53
-135 28 -90 84 22 28 63 31 95 6z"/>
<path d="M1319 674 c-10 -3 -19 -20 -23 -42 -13 -83 -95 -155 -192 -167 -99
-13 -211 64 -236 163 l-11 44 -81 -4 c-107 -6 -172 -34 -235 -104 l-48 -53
-33 34 c-45 46 -120 77 -190 77 -57 0 -130 -23 -130 -41 0 -21 102 -160 167
-227 461 -475 1229 -449 1635 56 76 94 111 148 105 164 -3 7 -22 21 -42 30
-77 37 -235 3 -285 -61 -10 -13 -22 -23 -27 -23 -5 0 -26 20 -46 45 -53 63
-149 107 -242 111 -38 2 -77 1 -86 -2z"/>
</g>
</svg>
